<svg width="513" height="343" viewBox="0 0 513 343" fill="none" xmlns="http://www.w3.org/2000/svg">
<g clip-path="url(#clip0_1132_3414)">
<path d="M0 0.932617H513V342.936H0V0.932617Z" fill="white"/>
<path d="M288.562 0.929688H224.438V139.867H0V203.992H224.438V342.928H288.562V203.992H513V139.867H288.562V0.929688Z" fill="#D80027"/>
<path d="M394.554 231.407L513 297.211V231.407H394.554ZM312.261 231.407L513 342.928V311.393L369.026 231.407H312.261ZM459.53 342.928L312.261 261.105V342.928H459.53Z" fill="#0052B4"/>
<path d="M312.261 231.407L513 342.928V311.393L369.026 231.407H312.261Z" fill="white"/>
<path d="M312.261 231.407L513 342.928V311.393L369.026 231.407H312.261Z" fill="#D80027"/>
<path d="M90.5175 231.405L0 281.693V231.405H90.5175ZM200.739 245.586V342.927H25.5408L200.739 245.586Z" fill="#0052B4"/>
<path d="M143.974 231.407L0 311.393V342.928L200.739 231.407H143.974Z" fill="#D80027"/>
<path d="M118.446 112.451L0 46.6468V112.451H118.446ZM200.739 112.451L0 0.929688V32.4652L143.974 112.451H200.739ZM53.4702 0.929688L200.739 82.7532V0.929688H53.4702Z" fill="#0052B4"/>
<path d="M200.739 112.451L0 0.929688V32.4652L143.974 112.451H200.739Z" fill="white"/>
<path d="M200.739 112.451L0 0.929688V32.4652L143.974 112.451H200.739Z" fill="#D80027"/>
<path d="M422.483 112.453L513 62.165V112.453H422.483ZM312.261 98.2714V0.930664H487.459L312.261 98.2714Z" fill="#0052B4"/>
<path d="M369.026 112.451L513 32.4652V0.929688L312.261 112.451H369.026Z" fill="#D80027"/>
</g>
<defs>
<clipPath id="clip0_1132_3414">
<rect width="513" height="342" fill="white" transform="translate(0 0.932617)"/>
</clipPath>
</defs>
</svg>
